<?xml version="1.0" encoding="UTF-8" standalone="no"?>
<!DOCTYPE svg PUBLIC "-//W3C//DTD SVG 1.1//EN" "http://www.w3.org/Graphics/SVG/1.1/DTD/svg11.dtd">
<svg version="1.1" xmlns="http://www.w3.org/2000/svg" xmlns:xlink="http://www.w3.org/1999/xlink" preserveAspectRatio="xMidYMid meet" viewBox="91.12500000000006 82.03064335089626 197.9677256662918 176.95024499187315" width="193.97" height="172.95"><defs><path d="M176.75 121.38L200.59 199.4L219.42 160.88C255.54 160.88 275.6 160.88 279.61 160.88C283.26 152.81 286.09 144.07 286.09 135.21C286.09 106.4 262.73 83.03 233.91 83.03C215.04 83.03 198.66 93.14 189.11 108.06C179.55 93.14 163.18 83.03 144.31 83.03C115.49 83.03 92.13 106.4 92.13 135.21C92.13 144.07 94.95 152.81 98.61 160.88C102.63 160.88 122.76 160.88 159 160.88L176.75 121.38Z" id="bVxotjaeN"></path><path d="M199.18 216.92L175.61 139.77L163.19 167.35C126.29 167.35 105.79 167.35 101.69 167.35C112.83 188.2 131.14 205.93 148.18 221.73C161.22 233.82 174.88 245.32 189.11 255.98C203.34 245.32 217 233.82 230.03 221.73C247.08 205.93 265.39 188.2 276.53 167.35C272.99 167.35 255.3 167.35 223.45 167.35L199.18 216.92Z" id="e4Rl51bsL3"></path></defs><g><g><use xlink:href="#bVxotjaeN" opacity="1" fill="#0e3351" fill-opacity="1"></use><g><use xlink:href="#bVxotjaeN" opacity="1" fill-opacity="0" stroke="#000000" stroke-width="1" stroke-opacity="0"></use></g></g><g><use xlink:href="#e4Rl51bsL3" opacity="1" fill="#0e3351" fill-opacity="1"></use><g><use xlink:href="#e4Rl51bsL3" opacity="1" fill-opacity="0" stroke="#000000" stroke-width="1" stroke-opacity="0"></use></g></g></g></svg>