<?xml version="1.0" encoding="UTF-8" standalone="no"?>
<!DOCTYPE svg PUBLIC "-//W3C//DTD SVG 1.1//EN" "http://www.w3.org/Graphics/SVG/1.1/DTD/svg11.dtd">
<svg version="1.1" xmlns="http://www.w3.org/2000/svg" xmlns:xlink="http://www.w3.org/1999/xlink" preserveAspectRatio="xMidYMid meet" viewBox="342.4620077736213 390.5554947754708 233.5474281123236 198.658095024234" width="229.55" height="194.66"><defs><path d="M362.16 523.8C359.09 521.71 357.39 518.52 357.56 515.2C357.17 506.78 363.48 499.17 373.03 496.53C377.18 495.02 381.49 493.82 385.89 492.94C382.16 491.88 378.77 490.12 375.97 487.81C370.82 484.16 371.06 475.05 377.71 472.12C380.74 470.74 383.96 469.67 387.3 468.94C388.45 468.88 389.54 468.5 390.4 467.86C389.21 466.56 387.25 466.72 385.73 466.35C379.72 465.37 375.66 460.64 376.46 455.55C376.94 449.16 381.69 445.84 387.61 443.45C392.36 441.55 397.48 440.39 402.73 440.04C402.81 438.63 401.68 438.28 400.5 438.05C398.76 437.68 397.09 437.08 395.57 436.27C388.77 432.86 387.95 426.78 393.79 422.21C397.48 419.33 402.19 418.43 406.91 417.6C408.19 417.56 409.44 417.24 410.52 416.66C409.6 415.71 408.39 415 407.01 414.59C400.58 411.6 398.26 404.8 401.83 399.41C401.87 399.35 401.91 399.29 401.95 399.23C402.7 398.14 403.74 397.2 405 396.51C409.57 393.57 415.12 391.9 420.88 391.72C428.99 391.35 437.13 391.61 445.18 392.5C449.62 393.16 453.95 394.28 458.07 395.83C462.56 397.19 465.74 400.57 466.27 404.54C466.96 409.07 464.32 413.49 459.59 415.75C458.6 416.28 457.25 416.32 456.45 417.41C458.76 418.63 461.49 418.91 463.86 419.97C470.27 422.98 472.56 429.77 468.97 435.14C468.51 435.84 467.95 436.5 467.32 437.09C464.27 440.28 459.87 442.34 455.04 442.84C454.31 442.81 453.6 443.08 453.15 443.56C456.91 446.15 460.14 449.11 460.16 453.59C460.18 458.19 456.86 461.22 452.68 464.32C455.09 464.9 457.59 465.11 460.09 464.93C468.84 464.59 477.54 466.29 485.22 469.83C485.87 470.14 486.51 470.48 487.13 470.82C491.86 473.37 493.28 478.61 490.32 482.61C487.93 486 484.35 488.67 480.06 490.26C478.87 490.75 477.43 490.88 476.71 491.99C476.8 492.23 476.86 492.62 476.98 492.63C485.98 493.82 491.48 498.79 495.61 505.04C496.42 506.32 497.84 507.26 499.53 507.62C504.85 509 509.76 511.3 513.95 514.37C515.11 515.59 516.58 516.58 518.24 517.27C520.15 515.22 521.95 513.04 523.73 510.91C526.33 508.15 529.48 505.77 533.03 503.89C535.91 502.13 537.39 502.28 539.66 504.48C547.03 511.13 550.46 520.2 549.01 529.2C548.52 532.23 548.47 532.25 552.12 532.52C560.89 533 568.6 537.56 572.08 544.32C573.59 546.9 573.35 547.44 570.64 549.41C569.17 550.47 567.77 551.61 566.39 552.75C563.1 555.11 559.29 556.89 555.16 557.98C548.89 560.11 542.04 560.75 535.37 559.81C533.34 559.56 532.63 560.26 532.89 561.92C533.44 566.19 532.88 570.51 531.24 574.58C529.18 579.51 524.89 583.57 519.29 585.87C518.48 586.41 517.3 586.3 516.66 585.62C516.61 585.57 516.56 585.51 516.51 585.45C514.32 582.49 510.73 580.74 507.91 578.33C506.51 577.37 505.32 576.23 504.37 574.95C503.92 573.75 502.39 573.09 500.96 573.46C500.73 573.53 500.51 573.61 500.31 573.72C494.95 575.76 489.23 575.78 483.51 575.92C477.81 576.07 472.13 576.54 466.44 577.03C460.47 577.58 454.44 577.66 448.44 577.26C439.75 576.63 431.08 576.87 422.37 576.91C409.97 576.96 397.47 577.24 385.12 575.23C377.69 574.38 370.34 573.1 363.11 571.42C356.23 569.17 350.19 565.42 345.63 560.55C344.2 558.89 343.46 556.89 343.52 554.84C343.02 546.84 345.51 539.68 353.15 534.28C357.28 531.2 362.19 528.95 367.5 527.67C365.3 526.07 363.74 524.93 362.16 523.8ZM495.55 560.08C487.77 563.37 478.56 563.27 470.88 559.83C468.36 558.75 468.21 558.47 469.06 556.04C469.9 553.35 471.32 550.81 473.25 548.55C477.74 543.55 481.37 537.88 488.27 534.73C489.74 534.06 489.61 533.24 488.97 532.24C487.94 530.55 485.9 529.46 483.64 529.39C467.91 527.79 452.14 529.02 436.4 528.58C429.05 528.37 421.72 528.87 414.34 528.38C406.27 527.68 398.14 527.56 390.04 528.02C385.58 528.36 381.1 529.01 376.63 528.98C369.19 528.84 361.94 530.98 356.26 535C348.99 539.53 345.3 547.05 346.65 554.55C347.17 557.84 349.56 559.87 351.55 562.34C354.97 566.23 359.92 568.99 365.53 570.11C371.1 571.54 376.9 572.33 382.63 573.29C395.35 575.41 408.33 574.59 421.15 575.49C421.75 575.55 422.36 575.52 422.95 575.39C427.19 574.52 431.6 574.36 435.91 574.93C445.62 575.77 455.4 575.94 465.15 575.43C473.84 574.76 482.51 574.07 491.23 573.94C494.23 573.78 497.15 573.09 499.8 571.9C500.95 571.44 501.87 570.79 501.38 569.54C500.39 566.18 499.63 562.77 499.12 559.34C497.56 558.89 496.6 559.66 495.55 560.08ZM483.71 516.16C483.82 511.74 485.34 508.72 490.91 507.88C491.06 507.86 491.19 507.77 491.33 507.74C493.52 507.32 493.52 506.09 492.48 504.92C490.67 502.46 488.5 500.2 486.03 498.18C484.25 496.8 482.09 495.82 479.75 495.32C471.23 493.75 462.48 493.19 453.78 493.65C448.54 494 443.29 493.99 438.05 493.64C431.46 493.26 424.86 492.77 418.26 492.82C406.68 492.8 395.13 493.73 383.77 495.6C375.7 496.72 368.36 500.16 363 505.32C359.83 508.48 359.02 517.32 361.52 520.01C364.6 523.67 369.4 526.04 374.71 526.54C375.01 526.57 375.31 526.55 375.6 526.47C378.36 525.48 381.25 526.25 384.04 526.02C395.46 525.08 406.84 526.27 418.22 526.55C426.93 526.76 435.63 526.69 444.33 526.85C449.88 526.94 455.43 526.7 460.97 526.67C468.89 526.61 476.82 527.04 485.79 527.29C484.13 523.75 483.42 519.95 483.71 516.16ZM478.79 488.69C482.92 487.14 486.3 484.46 488.39 481.09C490.3 478.09 489.5 474.18 486.62 473.02C482.18 470.89 477.43 469.26 472.49 468.16C460.42 466.18 448.24 466.73 436.09 467.07C428.9 467.27 421.73 467.93 414.54 468.25C407.33 468.37 400.13 468.93 393.01 469.92C388.41 470.54 383.94 471.74 379.76 473.48C374.41 475.89 373.02 482.43 377.11 485.73C379.99 488.06 382.96 490.5 387.62 490.2C388.98 490.2 390.31 490.51 391.46 491.11C393.21 491.83 395.18 492.1 397.11 491.87C406.39 491.5 415.65 490.43 424.99 491.25C429.61 491.66 434.29 491.61 438.92 491.96C446.29 492.53 453.61 491.46 461.91 491.71C467.75 491.97 473.58 490.92 478.79 488.69ZM411.73 442.1C409.77 442.1 407.81 441.98 405.87 442.12C401.06 442.32 396.31 443.08 391.76 444.39C388.52 445.4 385.55 446.93 383.01 448.89C379.65 451.57 378.35 455.59 379.63 459.32C380.48 462.61 383.99 463.69 387.6 464.61C395.6 466.44 403.91 467.06 412.16 466.44C421.59 465.98 431.02 465.41 440.45 465.12C444.52 465.05 448.48 463.99 451.84 462.06C455.49 460.35 457.7 457.09 457.6 453.59C457.38 449.81 454.34 446.56 450.02 445.47C446.93 444.54 443.73 443.88 440.48 443.5C430.94 442.63 421.33 442.29 411.75 441.74C411.74 441.81 411.73 442.06 411.73 442.1ZM405.04 420.44C402.56 420.92 400.16 421.67 397.92 422.68C394.77 423.8 392.7 426.35 392.6 429.21C392.78 431.95 395.07 434.28 398.26 434.94C398.96 435.17 399.64 435.43 400.32 435.69C404.69 437.3 409.25 438.53 413.92 439.36C421.52 440.75 429.33 441.16 437.08 440.58C440.78 440.33 444.4 439.16 448.22 439.92C455.78 441.43 461.71 439.09 466.42 434.21C468.32 432.37 468.87 429.79 467.84 427.51C466.02 422.84 461.78 420.87 456.52 419.96C448.03 418.79 439.43 418.33 430.83 418.61C422.18 418.2 413.49 418.82 405.04 420.44ZM444.38 416.76C448.4 417.31 452.53 416.66 456.04 414.91C460.4 413.13 463.8 410.59 463.68 405.98C463.57 402.62 461.24 399.59 457.63 398.14C454.18 396.59 450.47 395.51 446.63 394.92C439.5 394.04 432.29 393.67 425.08 393.81C418.86 393.53 412.71 394.99 407.59 397.95C402.83 400.51 401.45 405.81 404.5 409.8C404.52 409.82 404.53 409.85 404.55 409.87C406.27 411.62 408.54 412.94 411.11 413.67C415.28 415.34 419.91 415.02 424.24 415.85C429.11 416.59 434.05 416.87 438.99 416.71C440.79 416.56 442.59 416.58 444.38 416.76ZM528.01 540.17C532.08 536.79 537.24 534.49 542.85 533.52C544.11 533.27 545.12 532.48 545.5 531.44C549.72 523.92 543.47 511.33 537.97 506.69C536.82 505.5 534.72 505.31 533.3 506.28C533.25 506.32 533.2 506.36 533.15 506.39C522.78 512.51 516.7 522.53 516.91 533.15C517.19 536.28 517.89 539.36 519 542.36C519.5 543.77 520.74 544.91 522.37 545.46C524.26 543.68 526.09 541.88 528.01 540.17ZM560.11 554.25C563.49 552.84 566.41 550.76 568.61 548.19C569.68 547.26 569.92 545.86 569.21 544.72C565.34 538.29 557.06 534.19 549.48 534.92C539.91 535.84 531.41 538.55 525.88 545.79C525.06 546.86 525.05 547.47 526.01 548.37C527.65 549.68 528.93 551.27 529.77 553.03C530.83 556.04 534.19 558.05 537.92 557.94C539.42 558.04 540.92 558.11 542.41 558.19C548.63 558.55 556.19 555.86 560.11 554.25ZM520.25 547.58C517.13 545.94 517.09 545.92 514.46 547.9C513.57 548.56 512.86 549.39 512.02 550.11C509.91 552.41 507.34 554.37 504.42 555.91C502.51 556.81 501.51 558.62 501.93 560.42C501.98 568.89 507.04 576.78 515.45 581.49C519.54 583.88 519.52 583.87 523.54 581.14C525.07 580.15 526.36 578.92 527.33 577.51C529.7 574.21 530.92 570.42 530.85 566.57C531.24 558.05 527.36 551.33 520.25 547.58ZM511.43 541.31C515.99 542.21 516.55 541.4 515.36 537.39C514.03 533.4 514.05 529.17 515.42 525.18C516.57 522.05 516.54 519.07 512.87 516.88C511.68 515.92 510.44 515.02 509.14 514.18C504.9 512.17 501.05 509.48 495.64 509.67C486.84 509.96 486.08 512.19 486.31 517.78C486.27 531.67 497.29 538.49 511.43 541.31ZM494.11 536.89C493.07 536.09 491.54 535.94 490.31 536.52C488.22 537.21 486.27 538.16 484.52 539.35C479.14 543.9 474.86 549.29 471.93 555.21C471.15 556.77 471.66 557.66 473.55 558.47C478.09 560.45 483.32 561.01 488.31 560.05C494.6 558.81 500.43 556.32 505.33 552.79C509.02 550.64 511.97 547.73 513.92 544.33C506.72 542.47 499.78 540.87 494.11 536.89Z" id="ebZQU3nSe"></path></defs><g><g><use xlink:href="#ebZQU3nSe" opacity="1" fill="#0e3351" fill-opacity="1"></use><g><use xlink:href="#ebZQU3nSe" opacity="1" fill-opacity="0" stroke="#000000" stroke-width="1" stroke-opacity="0"></use></g></g></g></svg>