<?xml version="1.0" encoding="UTF-8" standalone="no"?>
<!DOCTYPE svg PUBLIC "-//W3C//DTD SVG 1.1//EN" "http://www.w3.org/Graphics/SVG/1.1/DTD/svg11.dtd">
<svg version="1.1" xmlns="http://www.w3.org/2000/svg" xmlns:xlink="http://www.w3.org/1999/xlink" preserveAspectRatio="xMidYMid meet" viewBox="123.54254020528577 130.40981884770525 380.03191489361694 412.0395133630155" width="375.53" height="408.04"><defs><path d="M499.57 323.19C499.57 426.82 415.44 510.96 311.81 510.96C208.18 510.96 124.04 426.82 124.04 323.19C124.04 219.56 208.18 135.43 311.81 135.43C415.44 135.43 499.57 219.56 499.57 323.19Z" id="a19hOEpox"></path><path d="M313.43 240.13C279.25 259.82 249.37 277.04 266.98 337.46C268.9 318.47 283.29 291.35 334.8 260.65C308.43 278.31 294.17 296.04 286.84 311.77C269.24 339.84 280.31 359.69 283.66 364.59C284.19 365.36 285.07 365.77 286 365.77C288.46 365.79 290.17 363.04 289.31 360.74C288.01 357.24 286.54 352.06 286.06 345.6C349.96 353.47 418.36 289.28 382.07 168.69C381.85 167.94 380.74 167.97 380.52 168.71C368.95 208.15 339.9 224.88 313.43 240.13Z" id="b1fuda3ggY"></path><path d="M335.9 288.8C292.08 314.05 253.76 336.12 276.34 413.59C278.81 389.24 297.27 354.46 363.3 315.11C329.49 337.75 311.21 360.48 301.81 380.65C279.25 416.64 293.44 442.09 297.74 448.37C298.41 449.36 299.54 449.89 300.73 449.89C303.89 449.91 306.08 446.39 304.98 443.44C303.31 438.95 301.43 432.3 300.81 424.02C382.74 434.11 470.45 351.81 423.92 197.19C423.63 196.23 422.21 196.27 421.93 197.22C407.09 247.79 369.84 269.25 335.9 288.8Z" id="liJ4sdIJF"></path><path d="M363.75 345.35C310.94 375.77 264.78 402.36 291.99 495.71C294.96 466.37 317.2 424.47 396.76 377.06C356.03 404.33 333.99 431.71 322.67 456.02C295.49 499.39 312.58 530.05 317.76 537.62C318.57 538.8 319.94 539.44 321.38 539.45C325.18 539.47 327.81 535.23 326.49 531.68C324.48 526.27 322.21 518.26 321.46 508.28C420.18 520.43 525.85 421.27 469.79 234.98C469.44 233.83 467.74 233.87 467.4 235.02C449.52 295.94 404.64 321.8 363.75 345.35Z" id="b3I18Vymd"></path><path d="M200.85 152.12C200.85 145.59 206.16 140.28 212.69 140.28C219.21 140.28 224.52 145.59 224.52 152.12C224.52 158.64 219.21 163.95 212.69 163.95C206.16 163.95 200.85 158.64 200.85 152.12ZM206.77 152.12C206.77 155.38 209.42 158.03 212.69 158.03C215.95 158.03 218.6 155.38 218.6 152.12C218.6 148.85 215.95 146.2 212.69 146.2C209.42 146.2 206.77 148.85 206.77 152.12Z" id="er4LCl5Ez"></path><path d="M187.12 190.56C182.37 196.1 177.85 201.69 173.66 207.24C172.07 209.44 172.3 212.45 174.32 214.32C174.44 214.42 174.59 214.57 174.71 214.67C177.06 216.41 180.36 216.02 182.1 213.6C186.18 208.17 190.56 202.72 195.13 197.38C196.06 196.3 196.49 194.97 196.43 193.56C196.3 192.14 195.66 190.9 194.57 189.97C192.4 188.11 189.2 188.31 187.26 190.41C187.23 190.44 187.15 190.52 187.12 190.56ZM158.48 229.44C154.58 235.69 151.02 242.03 147.94 248.24C146.87 250.34 147.31 252.9 149.05 254.51C149.4 254.84 149.83 255.08 150.25 255.33C152.8 256.61 156.08 255.54 157.36 252.99C160.3 247.15 163.69 241.08 167.45 234.99C168.95 232.5 168.23 229.24 165.74 227.73C163.59 226.4 160.8 226.77 159.08 228.63C158.87 228.86 158.65 229.1 158.48 229.44ZM137.44 273.33C135.01 280.78 133.38 287.98 132.46 294.75C132.46 294.75 132.43 294.78 132.46 294.82C132.2 296.52 132.86 298.21 134.11 299.35C134.92 300.11 135.91 300.59 137 300.73C139.81 301.1 142.57 298.98 142.91 296.2C143.75 290.07 145.28 283.44 147.51 276.59C147.94 275.26 147.84 273.81 147.2 272.56C146.55 271.32 145.46 270.39 144.14 269.96C142.17 269.28 139.99 269.86 138.59 271.37C138.09 271.92 137.7 272.56 137.44 273.33ZM134.04 323.15C136.41 331.16 140.53 337.91 146.35 343.29C148.48 345.26 151.84 345.12 153.81 342.99C155.78 340.86 155.64 337.5 153.51 335.53C149.09 331.44 146.05 326.41 144.15 320.13C143.8 318.8 142.9 317.68 141.64 317.02C140.38 316.36 138.96 316.2 137.59 316.59C136.7 316.84 135.86 317.36 135.22 318.06C133.96 319.42 133.52 321.38 134.04 323.15Z" id="a8s8Veg6K"></path><path d="M152.59 370.4C152.59 363.87 157.9 358.56 164.42 358.56C170.95 358.56 176.25 363.87 176.25 370.4C176.25 376.92 170.95 382.23 164.42 382.23C157.9 382.23 152.59 376.92 152.59 370.4ZM158.51 370.4C158.51 373.66 161.16 376.31 164.42 376.31C167.69 376.31 170.34 373.66 170.34 370.4C170.34 367.13 167.69 364.48 164.42 364.48C161.16 364.48 158.51 367.13 158.51 370.4Z" id="a1o2R697wu"></path><path d="M163.18 413.82C160.98 411.44 141.69 390.14 141.69 376.31C141.69 361.63 152.31 349.69 165.36 349.69C178.41 349.69 189.02 361.63 189.02 376.31C189.02 390.14 169.73 411.44 167.53 413.82C166.97 414.43 166.18 414.77 165.36 414.77C164.53 414.77 163.74 414.43 163.18 413.82ZM147.61 376.31C147.61 384.99 158.93 399.92 165.36 407.36C171.78 399.91 183.11 384.98 183.11 376.31C183.11 364.9 175.14 355.61 165.36 355.61C155.57 355.61 147.61 364.9 147.61 376.31Z" id="d1u99Lx2ze"></path><path d="M210.51 195.54C208.32 193.16 189.02 171.86 189.02 158.03C189.02 143.35 199.64 131.41 212.69 131.41C225.74 131.41 236.35 143.35 236.35 158.03C236.35 171.86 217.06 193.16 214.86 195.54C214.3 196.15 213.51 196.49 212.69 196.49C211.86 196.49 211.08 196.15 210.51 195.54ZM194.94 158.03C194.94 166.71 206.27 181.64 212.69 189.08C219.11 181.63 230.44 166.7 230.44 158.03C230.44 146.62 222.47 137.33 212.69 137.33C202.9 137.33 194.94 146.62 194.94 158.03Z" id="eOpKpR0ig"></path></defs><g><g><use xlink:href="#a19hOEpox" opacity="1" fill="#2e3032" fill-opacity="1"></use><g></g></g><g><use xlink:href="#b1fuda3ggY" opacity="1" fill="#82888d" fill-opacity="1"></use><g><use xlink:href="#b1fuda3ggY" opacity="1" fill-opacity="0" stroke="#000000" stroke-width="1" stroke-opacity="0"></use></g></g><g><use xlink:href="#liJ4sdIJF" opacity="1" fill="#0e3351" fill-opacity="1"></use><g><use xlink:href="#liJ4sdIJF" opacity="1" fill-opacity="0" stroke="#000000" stroke-width="1" stroke-opacity="0"></use></g></g><g><use xlink:href="#b3I18Vymd" opacity="1" fill="#488ec6" fill-opacity="1"></use><g><use xlink:href="#b3I18Vymd" opacity="1" fill-opacity="0" stroke="#000000" stroke-width="1" stroke-opacity="0"></use></g></g><g><use xlink:href="#er4LCl5Ez" opacity="1" fill="#82888d" fill-opacity="1"></use><g><use xlink:href="#er4LCl5Ez" opacity="1" fill-opacity="0" stroke="#000000" stroke-width="1" stroke-opacity="0"></use></g></g><g><use xlink:href="#a8s8Veg6K" opacity="1" fill="#82888d" fill-opacity="1"></use><g><use xlink:href="#a8s8Veg6K" opacity="1" fill-opacity="0" stroke="#000000" stroke-width="1" stroke-opacity="0"></use></g></g><g><use xlink:href="#a1o2R697wu" opacity="1" fill="#82888d" fill-opacity="1"></use><g><use xlink:href="#a1o2R697wu" opacity="1" fill-opacity="0" stroke="#000000" stroke-width="1" stroke-opacity="0"></use></g></g><g><use xlink:href="#d1u99Lx2ze" opacity="1" fill="#82888d" fill-opacity="1"></use><g><use xlink:href="#d1u99Lx2ze" opacity="1" fill-opacity="0" stroke="#000000" stroke-width="1" stroke-opacity="0"></use></g></g><g><use xlink:href="#eOpKpR0ig" opacity="1" fill="#82888d" fill-opacity="1"></use><g><use xlink:href="#eOpKpR0ig" opacity="1" fill-opacity="0" stroke="#000000" stroke-width="1" stroke-opacity="0"></use></g></g></g></svg>
