<?xml version="1.0" encoding="UTF-8" standalone="no"?>
<!DOCTYPE svg PUBLIC "-//W3C//DTD SVG 1.1//EN" "http://www.w3.org/Graphics/SVG/1.1/DTD/svg11.dtd">
<svg version="1.1" xmlns="http://www.w3.org/2000/svg" xmlns:xlink="http://www.w3.org/1999/xlink" preserveAspectRatio="xMidYMid meet" viewBox="342.4620077736213 390.5554947754708 41.729999999999905 35.999999999999886" width="32" height="32"><defs><path d="M346.54 413.3C346.03 412.95 345.75 412.43 345.78 411.88C345.72 410.5 346.75 409.25 348.32 408.81C349 408.56 349.71 408.37 350.44 408.22C349.82 408.05 349.27 407.76 348.81 407.38C347.96 406.78 348 405.28 349.09 404.8C349.59 404.57 350.12 404.4 350.67 404.28C350.86 404.27 351.04 404.2 351.18 404.1C350.98 403.89 350.66 403.91 350.41 403.85C349.42 403.69 348.75 402.91 348.89 402.08C348.96 401.03 349.75 400.48 350.72 400.09C351.5 399.77 352.34 399.58 353.2 399.53C353.22 399.29 353.03 399.24 352.84 399.2C352.55 399.14 352.28 399.04 352.03 398.91C350.91 398.35 350.77 397.35 351.73 396.6C352.34 396.12 353.11 395.97 353.89 395.84C354.1 395.83 354.31 395.78 354.48 395.68C354.33 395.53 354.13 395.41 353.91 395.34C352.85 394.85 352.47 393.73 353.06 392.85C353.06 392.84 353.07 392.83 353.08 392.82C353.2 392.64 353.37 392.48 353.58 392.37C354.33 391.89 355.24 391.61 356.19 391.58C357.52 391.52 358.86 391.56 360.18 391.71C360.91 391.82 361.62 392 362.3 392.26C363.04 392.48 363.56 393.04 363.65 393.69C363.76 394.43 363.33 395.16 362.55 395.53C362.39 395.62 362.17 395.63 362.03 395.81C362.41 396.01 362.86 396.05 363.25 396.23C364.31 396.72 364.68 397.84 364.09 398.72C364.02 398.84 363.92 398.94 363.82 399.04C363.32 399.56 362.6 399.9 361.8 399.99C361.68 399.98 361.57 400.03 361.49 400.1C362.11 400.53 362.64 401.02 362.64 401.75C362.65 402.51 362.1 403.01 361.41 403.52C361.81 403.61 362.22 403.65 362.63 403.62C364.07 403.56 365.5 403.84 366.76 404.42C366.87 404.47 366.97 404.53 367.08 404.59C367.85 405 368.09 405.87 367.6 406.52C367.21 407.08 366.62 407.52 365.91 407.78C365.72 407.86 365.48 407.88 365.36 408.07C365.38 408.1 365.39 408.17 365.41 408.17C366.89 408.37 367.79 409.18 368.47 410.21C368.6 410.42 368.84 410.58 369.11 410.64C369.99 410.86 370.8 411.24 371.48 411.75C371.68 411.95 371.92 412.11 372.19 412.22C372.5 411.88 372.8 411.53 373.09 411.18C373.52 410.72 374.04 410.33 374.62 410.02C375.09 409.73 375.34 409.76 375.71 410.12C376.92 411.21 377.49 412.7 377.25 414.18C377.17 414.68 377.16 414.68 377.76 414.73C379.2 414.81 380.47 415.56 381.04 416.67C381.29 417.09 381.25 417.18 380.8 417.5C380.56 417.68 380.33 417.87 380.1 418.05C379.56 418.44 378.94 418.73 378.26 418.91C377.23 419.26 376.1 419.37 375.01 419.22C374.67 419.17 374.55 419.29 374.6 419.56C374.69 420.26 374.6 420.97 374.33 421.64C373.99 422.45 373.28 423.12 372.36 423.5C372.23 423.59 372.04 423.57 371.93 423.46C371.92 423.45 371.91 423.44 371.91 423.43C371.55 422.94 370.95 422.66 370.49 422.26C370.26 422.1 370.07 421.91 369.91 421.7C369.84 421.51 369.58 421.4 369.35 421.46C369.31 421.47 369.28 421.48 369.24 421.5C368.36 421.84 367.42 421.84 366.48 421.86C365.54 421.89 364.61 421.97 363.68 422.05C362.69 422.14 361.7 422.15 360.72 422.08C359.29 421.98 357.86 422.02 356.43 422.03C354.39 422.03 352.34 422.08 350.31 421.75C349.09 421.61 347.88 421.4 346.69 421.12C345.56 420.75 344.57 420.14 343.82 419.34C343.58 419.06 343.46 418.73 343.47 418.4C343.39 417.08 343.8 415.91 345.05 415.02C345.73 414.51 346.54 414.14 347.41 413.93C347.05 413.67 346.8 413.48 346.54 413.3ZM368.46 419.26C367.18 419.8 365.67 419.78 364.41 419.22C363.99 419.04 363.97 419 364.11 418.6C364.24 418.15 364.48 417.74 364.8 417.36C365.53 416.54 366.13 415.61 367.26 415.09C367.51 414.98 367.48 414.85 367.38 414.68C367.21 414.41 366.87 414.23 366.5 414.21C363.92 413.95 361.32 414.15 358.74 414.08C357.53 414.05 356.32 414.13 355.11 414.05C353.78 413.93 352.45 413.91 351.12 413.99C350.38 414.04 349.65 414.15 348.91 414.15C347.69 414.12 346.5 414.48 345.56 415.14C344.37 415.88 343.76 417.12 343.99 418.35C344.07 418.89 344.46 419.23 344.79 419.63C345.35 420.27 346.17 420.72 347.09 420.91C348 421.14 348.96 421.27 349.9 421.43C351.99 421.78 354.12 421.64 356.23 421.79C356.33 421.8 356.43 421.8 356.53 421.78C357.22 421.63 357.95 421.61 358.66 421.7C360.25 421.84 361.86 421.87 363.46 421.78C364.89 421.67 366.32 421.56 367.75 421.54C368.24 421.51 368.72 421.4 369.16 421.2C369.35 421.13 369.5 421.02 369.42 420.81C369.26 420.26 369.13 419.7 369.05 419.14C368.79 419.06 368.63 419.19 368.46 419.26ZM366.51 412.04C366.53 411.31 366.78 410.82 367.7 410.68C367.72 410.67 367.74 410.66 367.77 410.65C368.13 410.59 368.13 410.38 367.96 410.19C367.66 409.79 367.3 409.42 366.89 409.08C366.6 408.86 366.25 408.7 365.86 408.61C364.46 408.36 363.03 408.26 361.59 408.34C360.73 408.4 359.87 408.4 359.01 408.34C357.93 408.27 356.84 408.19 355.76 408.2C353.85 408.2 351.95 408.35 350.09 408.66C348.76 408.84 347.55 409.41 346.67 410.26C346.15 410.78 346.02 412.23 346.43 412.67C346.94 413.27 347.73 413.66 348.6 413.75C348.65 413.75 348.7 413.75 348.74 413.73C349.2 413.57 349.67 413.7 350.13 413.66C352.01 413.51 353.88 413.7 355.75 413.75C357.18 413.78 358.61 413.77 360.04 413.8C360.95 413.81 361.87 413.77 362.78 413.77C364.08 413.76 365.38 413.83 366.86 413.87C366.58 413.29 366.47 412.66 366.51 412.04ZM365.71 407.52C366.38 407.27 366.94 406.83 367.28 406.27C367.6 405.78 367.47 405.14 366.99 404.95C366.26 404.6 365.48 404.33 364.67 404.15C362.69 403.82 360.68 403.91 358.69 403.97C357.51 404 356.33 404.11 355.15 404.16C353.96 404.18 352.78 404.28 351.61 404.44C350.85 404.54 350.12 404.74 349.43 405.02C348.55 405.42 348.32 406.49 348.99 407.04C349.47 407.42 349.95 407.82 350.72 407.77C350.94 407.77 351.16 407.82 351.35 407.92C351.64 408.04 351.96 408.08 352.28 408.05C353.81 407.98 355.33 407.81 356.86 407.94C357.62 408.01 358.39 408 359.15 408.06C360.36 408.15 361.57 407.98 362.93 408.02C363.89 408.06 364.85 407.89 365.71 407.52ZM354.68 399.86C354.36 399.86 354.04 399.85 353.72 399.87C352.93 399.9 352.15 400.03 351.4 400.24C350.87 400.41 350.38 400.66 349.96 400.98C349.41 401.42 349.2 402.08 349.41 402.7C349.55 403.24 350.12 403.41 350.72 403.57C352.03 403.87 353.4 403.97 354.75 403.87C356.3 403.79 357.85 403.7 359.4 403.65C360.07 403.64 360.72 403.46 361.28 403.15C361.88 402.86 362.24 402.33 362.22 401.75C362.19 401.13 361.69 400.6 360.98 400.42C360.47 400.27 359.94 400.16 359.41 400.09C357.84 399.95 356.26 399.9 354.69 399.81C354.69 399.82 354.68 399.86 354.68 399.86ZM353.58 396.3C353.18 396.38 352.78 396.51 352.41 396.67C351.9 396.86 351.55 397.27 351.54 397.74C351.57 398.2 351.94 398.58 352.47 398.69C352.58 398.72 352.7 398.77 352.81 398.81C353.53 399.08 354.27 399.28 355.04 399.41C356.29 399.64 357.58 399.71 358.85 399.61C359.46 399.57 360.05 399.38 360.68 399.51C361.92 399.75 362.9 399.37 363.67 398.57C363.98 398.26 364.08 397.84 363.91 397.47C363.61 396.7 362.91 396.38 362.05 396.22C360.65 396.03 359.24 395.96 357.82 396C356.4 395.94 354.97 396.04 353.58 396.3ZM360.05 395.7C360.71 395.79 361.39 395.68 361.97 395.39C362.68 395.1 363.24 394.68 363.22 393.93C363.2 393.37 362.82 392.88 362.23 392.64C361.66 392.38 361.05 392.21 360.42 392.11C359.25 391.96 358.06 391.9 356.88 391.93C355.86 391.88 354.84 392.12 354 392.61C353.22 393.03 352.99 393.9 353.49 394.55C353.5 394.56 353.5 394.56 353.5 394.57C353.79 394.85 354.16 395.07 354.58 395.19C355.27 395.47 356.03 395.41 356.74 395.55C357.54 395.67 358.35 395.72 359.16 395.69C359.46 395.67 359.76 395.67 360.05 395.7ZM373.8 415.99C374.47 415.43 375.31 415.05 376.23 414.89C376.44 414.85 376.61 414.72 376.67 414.55C377.36 413.32 376.34 411.25 375.43 410.48C375.24 410.29 374.9 410.26 374.67 410.42C374.66 410.42 374.65 410.43 374.64 410.43C372.94 411.44 371.94 413.09 371.97 414.83C372.02 415.35 372.13 415.85 372.32 416.35C372.4 416.58 372.6 416.77 372.87 416.86C373.18 416.56 373.48 416.27 373.8 415.99ZM379.07 418.3C379.63 418.07 380.11 417.73 380.47 417.3C380.64 417.15 380.68 416.92 380.57 416.73C379.93 415.68 378.57 415 377.32 415.12C375.75 415.27 374.35 415.72 373.44 416.91C373.31 417.09 373.31 417.19 373.47 417.33C373.74 417.55 373.95 417.81 374.08 418.1C374.26 418.59 374.81 418.93 375.42 418.91C375.67 418.92 375.92 418.93 376.16 418.95C377.18 419.01 378.43 418.57 379.07 418.3ZM372.52 417.2C372.01 416.93 372 416.93 371.57 417.26C371.42 417.37 371.3 417.5 371.17 417.62C370.82 418 370.4 418.32 369.92 418.57C369.6 418.72 369.44 419.02 369.51 419.32C369.52 420.71 370.35 422.01 371.73 422.78C372.4 423.17 372.4 423.17 373.06 422.72C373.31 422.56 373.52 422.36 373.68 422.13C374.07 421.58 374.27 420.96 374.26 420.33C374.33 418.93 373.69 417.82 372.52 417.2ZM371.07 416.17C371.82 416.32 371.91 416.19 371.72 415.53C371.5 414.87 371.5 414.18 371.73 413.52C371.92 413.01 371.91 412.52 371.31 412.16C371.11 412 370.91 411.85 370.69 411.71C370 411.38 369.36 410.94 368.48 410.97C367.03 411.02 366.9 411.39 366.94 412.31C366.94 414.59 368.75 415.71 371.07 416.17ZM368.22 415.45C368.05 415.32 367.8 415.29 367.6 415.39C367.26 415.5 366.93 415.66 366.65 415.85C365.76 416.6 365.06 417.49 364.58 418.46C364.45 418.72 364.53 418.86 364.84 418.99C365.59 419.32 366.45 419.41 367.27 419.26C368.3 419.05 369.26 418.64 370.07 418.06C370.67 417.71 371.16 417.23 371.48 416.67C370.3 416.37 369.16 416.1 368.22 415.45Z" id="b2uOrZBuFb"></path></defs><g><g><use xlink:href="#b2uOrZBuFb" opacity="1" fill="#0e3351" fill-opacity="1"></use><g><use xlink:href="#b2uOrZBuFb" opacity="1" fill-opacity="0" stroke="#000000" stroke-width="1" stroke-opacity="0"></use></g></g></g></svg>